# xmcd CD database file
#
# Track frame offsets:
#	150
#	14160
#	26280
#	40025
#	51879
#	67507
#	80887
#	93635
#	109212
#	122662
#	136585
#	151165
#	163112
#	176059
#	188540
#	202880
#	216020
#	228705
#	241967
#	254330
#
# Disc length: 3584 seconds
#
# Revision: 0
# Processed by: cddbd v1.4PL0 Copyright (c) Steve Scherf et al.
# Submitted via: CDex 1.40Release
#
DISCID=080dfe14
DTITLE=Gene Autry - Yodeling Gene Autry - The Life Of Jimmie Rodgers
DYEAR=1900
DGENRE=Country
TTITLE0=I'm Atlanta Bound (1931)
TTITLE1=Cowboy Yodel (1930)
TTITLE2=Missouri Is Calling (1931)
TTITLE3=She's A Hum Dum Dinger (1931)
TTITLE4=I'm Blue And Lonesome (1931)
TTITLE5=My Old Pal Of Yesterday (1931)
TTITLE6=Mississippi Valley Blues (1931)
TTITLE7=I'll Be Thinking Of You, Little Girl (1930)
TTITLE8=High Powered Mama (1930)
TTITLE9=Hobo Yodel (1930)
TTITLE10=They Cut Down The Old Pine Tree (1930)
TTITLE11=Hobo Bill's Last Ride (1930)
TTITLE12=Rheumatism Blues (1930)
TTITLE13=Back To Old Smokey Mountain (1932)
TTITLE14=Whisper Your Mother's Name (1930)
TTITLE15=A Gangster's Warning (1932)
TTITLE16=In The Shadow Of The Old Pine Tree (1930)
TTITLE17=The Answer To Nobody's Darling But Mine (1935)
TTITLE18=Any Old Time (1931)
TTITLE19=The Life Of Jimmie Rodgers (1933)
EXTD=ID3G: 2
EXTT0=
EXTT1=
EXTT2=
EXTT3=
EXTT4=
EXTT5=
EXTT6=
EXTT7=
EXTT8=
EXTT9=
EXTT10=
EXTT11=
EXTT12=
EXTT13=
EXTT14=
EXTT15=
EXTT16=
EXTT17=
EXTT18=
EXTT19=
PLAYORDER=
